<svg width="101" height="100" viewBox="0 0 101 100" fill="none" xmlns="http://www.w3.org/2000/svg">
<path d="M84.6879 35.809C85.8981 34.5988 85.8981 32.6322 84.6879 31.422C83.4777 30.2118 81.5111 30.2118 80.301 31.422L60.1815 51.5415L59.4252 52.2979L55.0382 56.6849L59.4252 61.0718L73.1911 74.8378C74.4013 76.048 76.3678 76.048 77.578 74.8378C78.7882 73.6276 78.7882 71.661 77.578 70.4508L63.8121 56.6849L68.199 52.2979C72.586 47.911 80.4522 40.0447 84.6879 35.809ZM72.1322 12.9666L50.5 34.5988L28.8678 12.9666H29.0191C31.4395 10.3949 35.2213 10.3949 37.4904 12.8153L50.3487 25.6736L63.207 12.8153C65.6274 10.3949 69.4092 10.3949 71.6783 12.8153H71.8296L72.1322 12.9666ZM16.3121 35.809C15.1019 34.5988 15.1019 32.6322 16.3121 31.422C17.5223 30.2118 19.4889 30.2118 20.699 31.422L41.5748 52.2979L42.4825 53.2056L43.0876 53.8107L46.1131 56.8361L41.7261 61.2231L27.9602 74.9891C26.75 76.1993 24.7834 76.1993 23.5732 74.9891C22.3631 73.7789 22.3631 71.8123 23.5732 70.6021L37.3392 56.8361L32.9522 52.4492C28.5653 48.0622 20.699 40.196 16.4634 35.9603L16.3121 35.809ZM77.1242 61.0718L81.5111 47.7597L88.9236 40.3472C90.7389 38.5319 91.6465 36.1116 91.6465 33.6912C91.6465 31.2708 90.7389 28.8504 88.9236 27.0351C87.1083 25.2198 84.6879 24.3121 82.2675 24.3121C79.8471 24.3121 77.4268 25.2198 75.6115 27.0351L54.8869 47.7597L50.5 52.1466L46.1131 47.7597L25.3885 27.0351C23.5732 25.2198 21.1529 24.3121 18.7325 24.3121C16.3121 24.3121 13.8917 25.2198 12.0764 27.0351C10.2611 28.8504 9.3535 31.2708 9.3535 33.6912C9.3535 36.1116 10.2611 38.5319 12.0764 40.3472L18.8838 47.1546L14.1943 51.3903C11.7739 48.9699 9.3535 46.5495 7.53822 44.7342C4.51274 41.7087 3 37.6243 3 33.6912C3 29.758 4.51274 25.6736 7.53822 22.6481C10.5637 19.6226 14.6481 18.1099 18.5812 18.1099C22.5143 18.1099 26.5987 19.6226 29.6242 22.6481L48.9873 42.0113L50.0462 43.0702L50.5 43.524L50.9538 43.0702L52.0127 42.0113L71.3758 22.6481C74.4013 19.6226 78.4857 18.1099 82.4188 18.1099C86.3519 18.1099 90.4363 19.6226 93.4618 22.6481C96.4873 25.6736 98 29.758 98 33.6912C98 37.6243 96.4873 41.7087 93.4618 44.7342C91.4952 46.7008 88.7723 49.4237 86.0494 52.1466L81.6624 47.7597L77.1242 61.0718ZM50.5 69.997L36.8854 83.6117C33.8599 86.6372 29.7755 88.1499 25.8424 88.1499C21.9092 88.1499 17.8248 86.6372 14.7994 83.6117C11.7739 80.5862 10.2611 76.5018 10.2611 72.5687C10.2611 68.6356 11.7739 64.5511 14.7994 61.5257L15.2532 61.0718L19.6401 65.4588L19.1863 65.9126C17.371 67.7279 16.4634 70.1483 16.4634 72.5687C16.4634 74.9891 17.371 77.4095 19.1863 79.2248C21.0016 81.04 23.422 81.9477 25.8424 81.9477C28.2627 81.9477 30.6831 81.04 32.4984 79.2248L50.6513 61.0718L55.492 65.9126L68.6529 79.0735C70.4682 80.8888 72.8885 81.7964 75.3089 81.7964C77.7293 81.7964 80.1497 80.8888 81.965 79.0735C83.7803 77.2582 84.6879 74.8378 84.6879 72.4174C84.6879 69.997 83.7803 67.5766 81.965 65.7613L81.5111 65.3075L85.8981 60.9206L86.3519 61.3744C89.3774 64.3999 90.8901 68.4843 90.8901 72.4174C90.8901 76.3505 89.3774 80.435 86.3519 83.4604C83.3264 86.4859 79.242 87.9987 75.3089 87.9987C71.3758 87.9987 67.2914 86.4859 64.2659 83.4604L50.6513 69.8457L50.5 69.997Z" fill="#1D8FE2"/>
<path d="M50.5 69.9983L36.8853 83.613C33.8599 86.6385 29.7755 88.1513 25.8423 88.1513C21.9092 88.1513 17.8248 86.6385 14.7994 83.613C11.7739 80.5875 10.2611 76.5031 10.2611 72.57C10.2611 68.6369 11.7739 64.5525 14.7994 61.527L15.2532 61.0731L19.6401 65.4601L19.1863 65.9139C17.371 67.7292 16.4634 70.1496 16.4634 72.57C16.4634 74.9904 17.371 77.4108 19.1863 79.2261C21.0016 81.0414 23.422 81.949 25.8423 81.949C28.2627 81.949 30.6831 81.0414 32.4984 79.2261L50.6513 61.0731L55.492 65.9139L68.6529 79.0748C70.4681 80.8901 72.8885 81.7977 75.3089 81.7977C77.7293 81.7977 80.1497 80.8901 81.965 79.0748C83.7802 77.2595 84.6879 74.8391 84.6879 72.4187C84.6879 69.9983 83.7802 67.578 81.965 65.7627L81.5111 65.3088L85.8981 60.9219L86.3519 61.3757C89.3774 64.4012 90.8901 68.4856 90.8901 72.4187C90.8901 76.3519 89.3774 80.4363 86.3519 83.4618C83.3264 86.4873 79.242 88 75.3089 88C71.3758 88 67.2914 86.4873 64.2659 83.4618L50.6513 69.8471L50.5 69.9983Z" fill="#1D8FE2"/>
<path d="M84.6879 35.8063C85.8981 34.5961 85.8981 32.6296 84.6879 31.4194C83.4777 30.2092 81.5112 30.2092 80.301 31.4194L60.1815 51.5389L59.4252 52.2952L55.0382 56.6822L59.4252 61.0691L73.1911 74.8351C74.4013 76.0453 76.3679 76.0453 77.578 74.8351C78.7882 73.6249 78.7882 71.6584 77.578 70.4482L63.8121 56.6822L68.1991 52.2952C72.586 47.9083 80.4522 40.042 84.6879 35.8063Z" fill="#8FE21D"/>
<path d="M16.3121 35.8063C15.1019 34.5961 15.1019 32.6296 16.3121 31.4194C17.5223 30.2092 19.4889 30.2092 20.6991 31.4194L41.5749 52.2952L42.4825 53.2029L43.0876 53.808L46.1131 56.8335L41.7261 61.2204L27.9602 74.9864C26.75 76.1966 24.7835 76.1966 23.5733 74.9864C22.3631 73.7762 22.3631 71.8096 23.5733 70.5994L37.3392 56.8335L32.9523 52.4465C28.5653 48.0596 20.6991 40.1933 16.4634 35.9576L16.3121 35.8063Z" fill="#8FE21D"/>
<path d="M22.2117 55.6294L12.2276 52.4526C11.6225 52.3013 11.4713 51.3937 11.9251 50.9398L17.9761 44.8889C18.4299 44.435 19.1862 44.5863 19.4888 45.1914L22.8168 55.1755C22.8168 55.4781 22.6655 55.7806 22.2117 55.7806V55.6294Z" fill="#1D8FE2"/>
<path d="M16.1608 67.878C18.333 67.878 20.094 66.1171 20.094 63.9449C20.094 61.7726 18.333 60.0117 16.1608 60.0117C13.9886 60.0117 12.2277 61.7726 12.2277 63.9449C12.2277 66.1171 13.9886 67.878 16.1608 67.878Z" fill="#1D8FE2" stroke="#1D8FE2" stroke-width="2" stroke-miterlimit="10"/>
<path d="M83.4777 53.9639C85.6499 53.9639 87.4108 52.203 87.4108 50.0308C87.4108 47.8586 85.6499 46.0977 83.4777 46.0977C81.3055 46.0977 79.5446 47.8586 79.5446 50.0308C79.5446 52.203 81.3055 53.9639 83.4777 53.9639Z" fill="#1D8FE2" stroke="#1D8FE2" stroke-width="2" stroke-miterlimit="10"/>
<path d="M78.7882 58.3477L88.621 61.827C89.2261 61.9782 89.3774 62.8859 88.9236 63.3397L82.7213 69.2394C82.2675 69.6932 81.5112 69.542 81.2086 68.9369L78.0319 58.9528C78.0319 58.6502 78.3344 58.3477 78.637 58.3477H78.7882Z" fill="#1D8FE2"/>
</svg>
