<?xml version="1.0" encoding="UTF-8"?>
<svg id="Layer_1" data-name="Layer 1" xmlns="http://www.w3.org/2000/svg" xmlns:xlink="http://www.w3.org/1999/xlink" viewBox="0 0 250 55">
  <defs>
    <style>
      .cls-1 {
        stroke: #1d8fe2;
        stroke-miterlimit: 10;
        stroke-width: 2px;
      }

      .cls-1, .cls-2 {
        fill: #1d8fe2;
      }

      .cls-3 {
        fill: #8fe21d;
      }

      .cls-4 {
        fill: url(#linear-gradient);
      }
    </style>
    <linearGradient id="linear-gradient" x1="114.97" y1="31.9" x2="132.41" y2="31.9" gradientUnits="userSpaceOnUse">
      <stop offset=".1" stop-color="#96e21d"/>
      <stop offset=".9" stop-color="#1dc1e2"/>
    </linearGradient>
  </defs>
  <g>
    <path class="cls-3" d="M83.77,15.4c-.87,0-1.5-.12-1.9-.38-.4-.25-.66-.6-.77-1.05-.12-.45-.18-.96-.18-1.53,0-.6.06-1.11.18-1.53.12-.42.38-.74.8-.97.42-.23,1.06-.35,1.92-.35s1.45.12,1.85.38c.4.25.67.59.8,1.02.13.43.2.95.2,1.55,0,.53-.07,1.03-.2,1.48-.13.45-.4.79-.8,1.02-.4.23-1.03.35-1.9.35ZM83.77,45.2c-.77,0-1.34-.12-1.73-.35-.38-.23-.62-.55-.72-.95-.1-.4-.15-.85-.15-1.35v-19.15c0-.5.06-.95.18-1.35.12-.4.36-.71.72-.92.37-.22.95-.33,1.75-.33s1.38.12,1.72.35c.35.23.58.55.68.95.1.4.15.87.15,1.4v19.1c0,.5-.05.95-.15,1.35-.1.4-.33.71-.7.92-.37.22-.95.33-1.75.33Z"/>
    <path class="cls-3" d="M92.36,21.3c.5-.4.93-.66,1.3-.77.37-.12.72-.08,1.07.12.35.2.78.57,1.28,1.1l15.8,18.9c.53.6.88,1.11,1.05,1.52.17.42.17.81,0,1.18s-.52.78-1.05,1.25c-.5.4-.92.67-1.27.8-.35.13-.72.1-1.1-.1-.38-.2-.84-.58-1.38-1.15l-15.8-18.9c-.5-.57-.83-1.06-1-1.47-.17-.42-.17-.82,0-1.2.17-.38.53-.81,1.1-1.28ZM111.77,21.3c.53.47.89.89,1.08,1.28.18.38.2.78.05,1.2s-.49.91-1.03,1.47l-15.85,18.9c-.5.57-.94.95-1.33,1.15-.38.2-.76.23-1.12.1-.37-.13-.8-.4-1.3-.8-.5-.47-.83-.88-1-1.25-.17-.37-.16-.77.03-1.2.18-.43.51-.93.97-1.5l15.85-18.9c.77-.8,1.38-1.23,1.85-1.3.47-.07,1.07.22,1.8.85Z"/>
    <path class="cls-4" d="M117.36,34.4c-.43,0-.83-.05-1.17-.15-.35-.1-.64-.33-.88-.67-.23-.35-.35-.91-.35-1.67s.11-1.33.32-1.67c.22-.35.51-.58.88-.68.37-.1.75-.15,1.15-.15h12.75c.43,0,.83.05,1.17.15.35.1.63.33.85.68.22.35.32.91.32,1.67s-.11,1.33-.32,1.67c-.22.35-.5.58-.85.67-.35.1-.76.15-1.22.15h-12.65Z"/>
    <path class="cls-2" d="M141.76,45.2c-.8,0-1.38-.12-1.75-.35-.37-.23-.6-.56-.7-.98-.1-.42-.15-.88-.15-1.38V12.9c0-1,.2-1.69.6-2.08.4-.38,1.12-.58,2.15-.58h19.8c.53,0,.99.06,1.38.17.38.12.67.37.88.75.2.38.3.98.3,1.78s-.11,1.39-.32,1.78c-.22.38-.53.62-.93.72-.4.1-.87.15-1.4.15h-17.2v9.35h11.9c.53,0,.98.06,1.35.17.37.12.64.34.83.67.18.33.27.88.27,1.65,0,.7-.1,1.22-.3,1.55-.2.33-.48.54-.85.62-.37.08-.82.12-1.35.12h-11.85v12.8c0,.5-.05.95-.15,1.35-.1.4-.34.72-.72.95-.38.23-.97.35-1.78.35Z"/>
    <path class="cls-2" d="M178.06,45.2c-1.17,0-2.2-.08-3.1-.25-.9-.17-1.68-.45-2.35-.85-.67-.4-1.21-.93-1.62-1.6-.42-.67-.72-1.47-.92-2.42s-.3-2.08-.3-3.38V12.15c0-.53.05-1,.15-1.4.1-.4.33-.71.7-.92.37-.22.93-.33,1.7-.33s1.38.11,1.75.33c.37.22.61.52.72.9s.18.84.18,1.38v24.45c0,.67.06,1.23.17,1.68.12.45.3.82.55,1.1s.57.48.95.6c.38.12.84.18,1.38.18.43,0,.81.05,1.12.15.32.1.57.33.75.67.18.35.27.91.27,1.68s-.09,1.38-.27,1.75c-.18.37-.44.6-.78.7-.33.1-.68.15-1.05.15Z"/>
    <path class="cls-2" d="M195.46,45.5c-1.63,0-3.2-.31-4.7-.92s-2.84-1.49-4.03-2.62c-1.18-1.13-2.12-2.46-2.83-3.97s-1.05-3.18-1.05-4.98.33-3.36.97-4.88c.65-1.52,1.55-2.85,2.7-4,1.15-1.15,2.48-2.05,3.98-2.7,1.5-.65,3.12-.97,4.85-.97,2.33,0,4.43.55,6.3,1.65,1.87,1.1,3.36,2.59,4.48,4.47,1.12,1.88,1.67,4.01,1.67,6.38,0,1.87-.34,3.57-1.03,5.1-.68,1.53-1.61,2.86-2.77,3.98-1.17,1.12-2.49,1.97-3.98,2.58-1.48.6-3.01.9-4.58.9ZM195.36,40.4c1.23,0,2.41-.32,3.53-.95,1.12-.63,2.02-1.52,2.7-2.65.68-1.13,1.03-2.43,1.03-3.9s-.32-2.7-.95-3.8c-.63-1.1-1.5-1.96-2.6-2.58-1.1-.62-2.35-.92-3.75-.92s-2.59.32-3.67.95c-1.08.63-1.95,1.51-2.6,2.62-.65,1.12-.97,2.38-.97,3.78,0,1.5.34,2.81,1.02,3.92.68,1.12,1.58,1.98,2.7,2.6,1.12.62,2.31.92,3.58.92Z"/>
    <path class="cls-2" d="M220.86,45.1c-.57,0-1.02-.1-1.35-.3-.33-.2-.58-.45-.75-.75-.17-.3-.3-.62-.4-.95l-7.55-19.1c-.2-.57-.29-1.04-.28-1.42.02-.38.17-.72.45-1s.71-.53,1.28-.72c.93-.37,1.67-.47,2.2-.3.53.17.93.67,1.2,1.5l5.25,13.95,4.8-13.45c.1-.3.23-.59.4-.88.17-.28.42-.53.78-.75.35-.22.81-.32,1.38-.32.63,0,1.12.11,1.45.32.33.22.6.47.8.75.2.28.33.56.4.83l4.75,13.6,5.15-13.65c.33-.93.77-1.54,1.3-1.83.53-.28,1.25-.24,2.15.12.83.3,1.39.71,1.67,1.23s.24,1.21-.12,2.07l-7.6,19.1c-.1.3-.23.6-.4.9-.17.3-.42.55-.75.75-.33.2-.78.3-1.35.3s-1.01-.09-1.33-.28c-.32-.18-.57-.43-.75-.75-.18-.32-.34-.66-.48-1.03l-4.85-13.85-4.9,13.85c-.13.43-.28.81-.45,1.12-.17.32-.41.55-.73.7-.32.15-.77.23-1.38.23Z"/>
  </g>
  <g>
    <path class="cls-2" d="M57.83,18.38c.81-.81.81-2.13,0-2.94-.81-.81-2.13-.81-2.94,0l-13.29,13.29-.53.53-2.93,2.93h0l2.94,2.94,9.12,9.12c.81.81,2.13.81,2.94,0,.81-.81.81-2.13,0-2.94l-9.12-9.12,2.91-2.91h0c2.85-2.85,8.05-8.05,10.91-10.91h0ZM49.53,3.25l-14.29,14.29L20.95,3.25l.12-.12c1.56-1.56,4.09-1.56,5.64,0l8.53,8.53,8.53-8.53c1.56-1.56,4.09-1.56,5.64,0l.12.12ZM12.65,18.38c-.81-.81-.81-2.13,0-2.94.81-.81,2.13-.81,2.94,0l13.82,13.82.58.58.37.37,1.98,1.98h0l-2.94,2.94h0l-9.12,9.12c-.81.81-2.13.81-2.94,0s-.81-2.13,0-2.94l9.12-9.12h0l-2.91-2.91h0c-2.85-2.85-8.05-8.05-10.91-10.91h0ZM52.77,35.12,55.74,26.28l4.92-4.92c1.2-1.2,1.8-2.79,1.8-4.37s-.6-3.17-1.8-4.37c-1.2-1.2-2.79-1.8-4.37-1.8s-3.17.6-4.37,1.8l-13.73,13.73h0l-2.94,2.94-2.94-2.94h0l-13.73-13.73c-1.2-1.2-2.79-1.8-4.37-1.8s-3.17.6-4.37,1.8c-1.2,1.2-1.8,2.79-1.8,4.37s.6,3.17,1.8,4.37l4.53,4.53-3.1,2.78c-1.64-1.64-3.2-3.2-4.37-4.37-2.01-2.01-3.02-4.66-3.02-7.31s1.01-5.3,3.02-7.31c2.01-2.01,4.66-3.02,7.31-3.02s5.3,1,7.31,3.02l12.76,12.76.67.67.31.31.31-.31.67-.67,12.76-12.76c2.01-2.01,4.66-3.02,7.31-3.02s5.3,1,7.31,3.02c2.01,2.01,3.02,4.66,3.02,7.31s-1.01,5.3-3.02,7.31c-1.3,1.3-3.09,3.09-4.92,4.92l-2.93-2.93ZM35.24,40.97l-9.04,9.04c-2.01,2.01-4.66,3.02-7.31,3.02s-5.3-1-7.31-3.02c-2.01-2.01-3.02-4.66-3.02-7.31s1.01-5.3,3.02-7.31h0s.26-.25.26-.25l2.92,2.93-.26.26h0c-1.2,1.21-1.8,2.79-1.8,4.38s.6,3.17,1.8,4.37c1.2,1.2,2.79,1.8,4.37,1.8s3.17-.6,4.37-1.8l11.97-11.97,3.24,3.24,8.74,8.74c1.2,1.2,2.79,1.8,4.37,1.8s3.17-.6,4.37-1.8c1.2-1.2,1.8-2.79,1.8-4.37s-.6-3.17-1.8-4.37h0s-.26-.26-.26-.26l2.93-2.93.26.26h0c2.01,2.01,3.02,4.66,3.02,7.3s-1.01,5.3-3.02,7.31c-2.01,2.01-4.66,3.02-7.31,3.02s-5.3-1-7.31-3.02l-9.04-9.04h0Z"/>
    <path class="cls-2" d="M35.24,40.97l-9.04,9.04c-2.01,2.01-4.66,3.02-7.31,3.02s-5.3-1-7.31-3.02c-2.01-2.01-3.02-4.66-3.02-7.31s1.01-5.3,3.02-7.31h0s.26-.25.26-.25l2.92,2.93-.26.26h0c-1.2,1.21-1.8,2.79-1.8,4.38s.6,3.17,1.8,4.37c1.2,1.2,2.79,1.8,4.37,1.8s3.17-.6,4.37-1.8l11.97-11.97,3.24,3.24,8.74,8.74c1.2,1.2,2.79,1.8,4.37,1.8s3.17-.6,4.37-1.8c1.2-1.2,1.8-2.79,1.8-4.37s-.6-3.17-1.8-4.37h0s-.26-.26-.26-.26l2.93-2.93.26.26h0c2.01,2.01,3.02,4.66,3.02,7.3s-1.01,5.3-3.02,7.31c-2.01,2.01-4.66,3.02-7.31,3.02s-5.3-1-7.31-3.02l-9.04-9.04h0Z"/>
    <path class="cls-3" d="M57.83,18.38c.81-.81.81-2.13,0-2.94-.81-.81-2.13-.81-2.94,0l-13.29,13.29-.53.53-2.93,2.93h0l2.94,2.94,9.12,9.12c.81.81,2.13.81,2.94,0,.81-.81.81-2.13,0-2.94l-9.12-9.12,2.91-2.91h0c2.85-2.85,8.05-8.05,10.91-10.91h0Z"/>
    <path class="cls-3" d="M12.65,18.38c-.81-.81-.81-2.13,0-2.94.81-.81,2.13-.81,2.94,0l13.82,13.82.58.58.37.37,1.98,1.98h0l-2.94,2.94h0l-9.12,9.12c-.81.81-2.13.81-2.94,0s-.81-2.13,0-2.94l9.12-9.12h0l-2.91-2.91h0c-2.85-2.85-8.05-8.05-10.91-10.91h0Z"/>
    <path class="cls-2" d="M16.49,31.47l-6.59-2.13c-.41-.13-.54-.66-.24-.97l3.98-4.04c.31-.31.83-.19.97.22l2.25,6.55c.08.23-.14.45-.37.37Z"/>
    <circle class="cls-1" cx="12.47" cy="36.96" r="2.59"/>
    <circle class="cls-1" cx="57.01" cy="27.82" r="2.59"/>
    <path class="cls-2" d="M53.91,33.28l6.52,2.33c.41.15.52.67.21.98l-4.09,3.92c-.31.3-.84.17-.97-.25l-2.05-6.62c-.07-.23.15-.44.38-.36Z"/>
  </g>
</svg>