<?xml version="1.0" encoding="UTF-8"?>
<svg id="Layer_1" xmlns="http://www.w3.org/2000/svg" version="1.1" viewBox="0 0 250 55">
  <!-- Generator: Adobe Illustrator 29.7.1, SVG Export Plug-In . SVG Version: 2.1.1 Build 8)  -->
  <defs>
    <style>
      .st0 {
        stroke: #1d8fe2;
        stroke-miterlimit: 10;
        stroke-width: 2px;
      }

      .st0, .st1 {
        fill: #1d8fe2;
      }

      .st2 {
        fill: #8fe21d;
      }
    </style>
  </defs>
  <g>
    <path class="st2" d="M83.8,15.4c-.9,0-1.5-.1-1.9-.4-.4-.2-.7-.6-.8-1-.1-.5-.2-1-.2-1.5s0-1.1.2-1.5c.1-.4.4-.7.8-1,.4-.2,1.1-.3,1.9-.3s1.5.1,1.8.4c.4.2.7.6.8,1,.1.4.2,1,.2,1.5s0,1-.2,1.5c-.1.5-.4.8-.8,1-.4.2-1,.4-1.9.4ZM83.8,45.2c-.8,0-1.3-.1-1.7-.3-.4-.2-.6-.6-.7-1,0-.4-.2-.9-.2-1.4v-19.1c0-.5,0-1,.2-1.4.1-.4.4-.7.7-.9.4-.2,1-.3,1.8-.3s1.4.1,1.7.4c.4.2.6.5.7,1,0,.4.1.9.1,1.4v19.1c0,.5,0,.9-.1,1.3-.1.4-.3.7-.7.9-.4.2-1,.3-1.8.3Z"/>
    <path class="st2" d="M92.4,21.3c.5-.4.9-.7,1.3-.8.4-.1.7,0,1.1.1.4.2.8.6,1.3,1.1l15.8,18.9c.5.6.9,1.1,1,1.5.2.4.2.8,0,1.2s-.5.8-1,1.2c-.5.4-.9.7-1.3.8-.4.1-.7,0-1.1-.1-.4-.2-.8-.6-1.4-1.1l-15.8-18.9c-.5-.6-.8-1.1-1-1.5-.2-.4-.2-.8,0-1.2.2-.4.5-.8,1.1-1.3ZM111.8,21.3c.5.5.9.9,1.1,1.3.2.4.2.8,0,1.2s-.5.9-1,1.5l-15.8,18.9c-.5.6-.9,1-1.3,1.1-.4.2-.8.2-1.1.1-.4-.1-.8-.4-1.3-.8-.5-.5-.8-.9-1-1.2-.2-.4-.2-.8,0-1.2.2-.4.5-.9,1-1.5l15.8-18.9c.8-.8,1.4-1.2,1.9-1.3.5,0,1.1.2,1.8.8Z"/>
    <path class="st2" d="M117.4,34.4c-.4,0-.8,0-1.2-.2-.3,0-.6-.3-.9-.7-.2-.3-.3-.9-.3-1.7s.1-1.3.3-1.7c.2-.4.5-.6.9-.7.4,0,.8-.1,1.2-.1h12.8c.4,0,.8,0,1.2.1.4.1.6.3.9.7.2.3.3.9.3,1.7s-.1,1.3-.3,1.7c-.2.3-.5.6-.9.7-.3.1-.8.2-1.2.2h-12.7Z"/>
    <path class="st1" d="M141.8,45.2c-.8,0-1.4-.1-1.8-.3-.4-.2-.6-.6-.7-1-.1-.4-.2-.9-.2-1.4V12.9c0-1,.2-1.7.6-2.1.4-.4,1.1-.6,2.2-.6h19.8c.5,0,1,0,1.4.2.4.1.7.4.9.8.2.4.3,1,.3,1.8s-.1,1.4-.3,1.8c-.2.4-.5.6-.9.7-.4,0-.9.2-1.4.2h-17.2v9.3h11.9c.5,0,1,0,1.3.2.4.1.6.3.8.7.2.3.3.9.3,1.7s0,1.2-.3,1.5c-.2.3-.5.5-.8.6-.4,0-.8.1-1.4.1h-11.8v12.8c0,.5,0,1-.2,1.4,0,.4-.3.7-.7,1-.4.2-1,.3-1.8.3Z"/>
    <path class="st1" d="M178.1,45.2c-1.2,0-2.2,0-3.1-.2-.9-.2-1.7-.5-2.4-.8-.7-.4-1.2-.9-1.6-1.6-.4-.7-.7-1.5-.9-2.4s-.3-2.1-.3-3.4V12.2c0-.5,0-1,.1-1.4.1-.4.3-.7.7-.9.4-.2.9-.3,1.7-.3s1.4.1,1.8.3c.4.2.6.5.7.9s.2.8.2,1.4v24.4c0,.7,0,1.2.2,1.7.1.4.3.8.5,1.1s.6.5,1,.6c.4.1.8.2,1.4.2s.8,0,1.1.1c.3.1.6.3.8.7.2.4.3.9.3,1.7s0,1.4-.3,1.8c-.2.4-.4.6-.8.7-.3.1-.7.2-1,.2Z"/>
    <path class="st1" d="M195.5,45.5c-1.6,0-3.2-.3-4.7-.9s-2.8-1.5-4-2.6c-1.2-1.1-2.1-2.5-2.8-4s-1-3.2-1-5,.3-3.4,1-4.9c.7-1.5,1.6-2.8,2.7-4,1.2-1.1,2.5-2,4-2.7,1.5-.6,3.1-1,4.8-1s4.4.5,6.3,1.7c1.9,1.1,3.4,2.6,4.5,4.5,1.1,1.9,1.7,4,1.7,6.4s-.3,3.6-1,5.1c-.7,1.5-1.6,2.9-2.8,4-1.2,1.1-2.5,2-4,2.6-1.5.6-3,.9-4.6.9ZM195.4,40.4c1.2,0,2.4-.3,3.5-1,1.1-.6,2-1.5,2.7-2.7.7-1.1,1-2.4,1-3.9s-.3-2.7-1-3.8c-.6-1.1-1.5-2-2.6-2.6-1.1-.6-2.4-.9-3.8-.9s-2.6.3-3.7.9c-1.1.6-2,1.5-2.6,2.6-.6,1.1-1,2.4-1,3.8s.3,2.8,1,3.9c.7,1.1,1.6,2,2.7,2.6,1.1.6,2.3.9,3.6.9Z"/>
    <path class="st1" d="M220.9,45.1c-.6,0-1-.1-1.3-.3-.3-.2-.6-.4-.8-.8-.2-.3-.3-.6-.4-.9l-7.5-19.1c-.2-.6-.3-1-.3-1.4,0-.4.2-.7.5-1s.7-.5,1.3-.7c.9-.4,1.7-.5,2.2-.3.5.2.9.7,1.2,1.5l5.2,14,4.8-13.5c0-.3.2-.6.4-.9.2-.3.4-.5.8-.8.3-.2.8-.3,1.4-.3s1.1.1,1.5.3c.3.2.6.5.8.8.2.3.3.6.4.8l4.8,13.6,5.2-13.7c.3-.9.8-1.5,1.3-1.8.5-.3,1.2-.2,2.2.1.8.3,1.4.7,1.7,1.2s.2,1.2-.1,2.1l-7.6,19.1c-.1.3-.2.6-.4.9-.2.3-.4.6-.8.8-.3.2-.8.3-1.3.3s-1,0-1.3-.3c-.3-.2-.6-.4-.8-.8-.2-.3-.3-.7-.5-1l-4.8-13.8-4.9,13.8c-.1.4-.3.8-.4,1.1-.2.3-.4.6-.7.7-.3.2-.8.2-1.4.2Z"/>
  </g>
  <g>
    <path class="st1" d="M57.8,18.4c.8-.8.8-2.1,0-2.9-.8-.8-2.1-.8-2.9,0l-13.3,13.3-.5.5-2.9,2.9h0l2.9,2.9,9.1,9.1c.8.8,2.1.8,2.9,0,.8-.8.8-2.1,0-2.9l-9.1-9.1,2.9-2.9h0c2.9-2.9,8.1-8.1,10.9-10.9h0ZM49.5,3.3l-14.3,14.3L20.9,3.3h.1c1.6-1.7,4.1-1.7,5.6-.1l8.5,8.5,8.5-8.5c1.6-1.6,4.1-1.6,5.6,0h.1ZM12.6,18.4c-.8-.8-.8-2.1,0-2.9.8-.8,2.1-.8,2.9,0l13.8,13.8.6.6.4.4,2,2h0l-2.9,2.9h0l-9.1,9.1c-.8.8-2.1.8-2.9,0s-.8-2.1,0-2.9l9.1-9.1h0l-2.9-2.9h0c-2.9-2.9-8.1-8.1-10.9-10.9h0ZM52.8,35.1,55.7,26.3l4.9-4.9c1.2-1.2,1.8-2.8,1.8-4.4s-.6-3.2-1.8-4.4c-1.2-1.2-2.8-1.8-4.4-1.8s-3.2.6-4.4,1.8l-13.7,13.7h0l-2.9,2.9-2.9-2.9h0l-13.7-13.7c-1.2-1.2-2.8-1.8-4.4-1.8s-3.2.6-4.4,1.8c-1.2,1.2-1.8,2.8-1.8,4.4s.6,3.2,1.8,4.4l4.5,4.5-3.1,2.8c-1.6-1.6-3.2-3.2-4.4-4.4-2-2-3-4.7-3-7.3s1-5.3,3-7.3c2-2,4.7-3,7.3-3s5.3,1,7.3,3l12.8,12.8.7.7.3.3.3-.3.7-.7,12.8-12.8c2-2,4.7-3,7.3-3s5.3,1,7.3,3c2,2,3,4.7,3,7.3s-1,5.3-3,7.3c-1.3,1.3-3.1,3.1-4.9,4.9l-2.9-2.9ZM35.2,41l-9,9c-2,2-4.7,3-7.3,3s-5.3-1-7.3-3c-2-2-3-4.7-3-7.3s1-5.3,3-7.3h0s.3-.3.3-.3l2.9,2.9-.3.3h0c-1.2,1.2-1.8,2.8-1.8,4.4s.6,3.2,1.8,4.4c1.2,1.2,2.8,1.8,4.4,1.8s3.2-.6,4.4-1.8l12-12,3.2,3.2,8.7,8.7c1.2,1.2,2.8,1.8,4.4,1.8s3.2-.6,4.4-1.8c1.2-1.2,1.8-2.8,1.8-4.4s-.6-3.2-1.8-4.4h0s-.3-.3-.3-.3l2.9-2.9.3.3h0c2,2,3,4.7,3,7.3s-1,5.3-3,7.3c-2,2-4.7,3-7.3,3s-5.3-1-7.3-3l-9-9h0Z"/>
    <path class="st1" d="M35.2,41l-9,9c-2,2-4.7,3-7.3,3s-5.3-1-7.3-3c-2-2-3-4.7-3-7.3s1-5.3,3-7.3h0s.3-.3.3-.3l2.9,2.9-.3.3h0c-1.2,1.2-1.8,2.8-1.8,4.4s.6,3.2,1.8,4.4c1.2,1.2,2.8,1.8,4.4,1.8s3.2-.6,4.4-1.8l12-12,3.2,3.2,8.7,8.7c1.2,1.2,2.8,1.8,4.4,1.8s3.2-.6,4.4-1.8c1.2-1.2,1.8-2.8,1.8-4.4s-.6-3.2-1.8-4.4h0s-.3-.3-.3-.3l2.9-2.9.3.3h0c2,2,3,4.7,3,7.3s-1,5.3-3,7.3c-2,2-4.7,3-7.3,3s-5.3-1-7.3-3l-9-9h0Z"/>
    <path class="st2" d="M57.8,18.4c.8-.8.8-2.1,0-2.9-.8-.8-2.1-.8-2.9,0l-13.3,13.3-.5.5-2.9,2.9h0l2.9,2.9,9.1,9.1c.8.8,2.1.8,2.9,0,.8-.8.8-2.1,0-2.9l-9.1-9.1,2.9-2.9h0c2.9-2.9,8.1-8.1,10.9-10.9h0Z"/>
    <path class="st2" d="M12.6,18.4c-.8-.8-.8-2.1,0-2.9.8-.8,2.1-.8,2.9,0l13.8,13.8.6.6.4.4,2,2h0l-2.9,2.9h0l-9.1,9.1c-.8.8-2.1.8-2.9,0s-.8-2.1,0-2.9l9.1-9.1h0l-2.9-2.9h0c-2.9-2.9-8.1-8.1-10.9-10.9h0Z"/>
    <path class="st1" d="M16.5,31.5l-6.6-2.1c-.4-.1-.5-.7-.2-1l4-4c.3-.3.8-.2,1,.2l2.2,6.6c0,.2-.1.4-.4.4Z"/>
    <circle class="st0" cx="12.5" cy="37" r="2.6"/>
    <circle class="st0" cx="57" cy="27.8" r="2.6"/>
    <path class="st1" d="M53.9,33.3l6.5,2.3c.4.1.5.7.2,1l-4.1,3.9c-.3.3-.8.2-1-.2l-2.1-6.6c0-.2.2-.4.4-.4Z"/>
  </g>
</svg>