<svg width="109" height="86" viewBox="0 0 109 86" fill="none" xmlns="http://www.w3.org/2000/svg">
<path d="M64.8 74V34.4C64.8 26.6667 66.2667 20.2667 69.2 15.2C74.8 5.06667 84.6667 0 98.8 0H102.4L106.8 0.800018V14.8H106C97.2 14.8 92.8 19.3333 92.8 28.4V39.2H98C105.2 39.2 108.8 42.9333 108.8 50.4V74C108.8 82 105.2 86 98 86H75.6C68.4 86 64.8 82 64.8 74ZM35.6 0C37.2 0 39.2 0.266676 41.6 0.800018V14.8H40.8C32.2667 14.8 28 19.3333 28 28.4V39.2H32.8C40.2667 39.2 44 42.9333 44 50.4V74C44 82 40.2667 86 32.8 86H10.4C3.46667 86 0 82 0 74V34.4C0 11.4667 11.8667 0 35.6 0Z" fill="black"/>
</svg>
